<?xml version="1.0" standalone="no"?>
<!DOCTYPE svg PUBLIC "-//W3C//DTD SVG 1.1//EN" "http://www.w3.org/Graphics/SVG/1.1/DTD/svg11.dtd">
<svg xmlns="http://www.w3.org/2000/svg">
<metadata>Generated by Fontastic.me</metadata>
<defs>
<font id="wm-font-icon" horiz-adv-x="512">
<font-face font-family="wm-font-icon" units-per-em="512" ascent="480" descent="-32"/>
<missing-glyph horiz-adv-x="512" />

<glyph glyph-name="desktop" unicode="&#98;" d="M50 491c-16 0-29-13-29-29l0-305c0-16 13-29 29-29l412 0c16 0 29 13 29 29l0 305c0 16-13 29-29 29z m412-384l-412 0c-27 0-50 22-50 50l0 305c0 27 23 50 50 50l412 0c27 0 50-23 50-50l0-305c0-28-23-50-50-50z m-441 85l470 0 0 21-470 0z m111-128c-2 0-4-2-4-4l0-35c0-2 2-4 4-4l248 0c2 0 4 2 4 4l0 35c0 2-2 4-4 4l-81 0 0 43-86 0 0-43z m248-64l-248 0c-14 0-25 11-25 25l0 35c0 14 11 25 25 25l60 0 0 43 128 0 0-43 60 0c14 0 25-11 25-25l0-35c0-14-11-25-25-25z"/>
<glyph glyph-name="mobile" unicode="&#99;" d="M39 491c-9 0-17-8-17-18l0-434c0-10 8-18 17-18l222 0c9 0 17 8 17 18l0 434c0 10-8 18-17 18z m222-491l-222 0c-21 0-38 17-38 39l0 434c0 22 17 39 38 39l222 0c21 0 38-17 38-39l0-434c0-22-17-39-38-39z m-248 128l280 0 0 21-280 0z m0 299l280 0 0 21-280 0z m158-363l-42 0c-6 0-11 5-11 11 0 6 5 10 11 10l42 0c6 0 11-4 11-10 0-6-5-11-11-11"/>
<glyph glyph-name="platform" unicode="&#100;" d="M52 491c-17 0-31-14-31-31l0-408c0-17 14-31 31-31l408 0c17 0 31 14 31 31l0 408c0 17-14 31-31 31z m408-491l-408 0c-28 0-52 24-52 52l0 408c0 28 24 52 52 52l408 0c28 0 52-24 52-52l0-408c0-28-24-52-52-52z m-439 341l470 0 0 22-470 0z m86 86c0-12-10-22-22-22-11 0-21 10-21 22 0 11 10 21 21 21 12 0 22-10 22-21m64 0c0-12-10-22-22-22-11 0-21 10-21 22 0 11 10 21 21 21 12 0 22-10 22-21m64 0c0-12-10-22-22-22-11 0-21 10-21 22 0 11 10 21 21 21 12 0 22-10 22-21"/>
<glyph glyph-name="power" unicode="&#101;" d="M256 0c-134 0-244 109-244 244 0 62 24 121 67 167l3 3 101 0c7 0 12-5 12-12 0-6-5-12-12-12l-90 0c-37-40-56-92-56-146 0-121 98-220 219-220 121 0 219 99 219 220 0 54-19 106-56 146l-90 0c-7 0-12 6-12 12 0 7 5 12 12 12l101 0 3-3c43-46 67-105 67-167 0-135-110-244-244-244m0 244c-7 0-12 5-12 12l0 244c0 7 5 12 12 12 7 0 12-5 12-12l0-244c0-7-5-12-12-12"/>
<glyph glyph-name="toggle" unicode="&#102;" d="M256 496c-132 0-240-108-240-240 0-132 108-240 240-240 132 0 240 108 240 240 0 132-108 240-240 240m0-496c-141 0-256 115-256 256 0 141 115 256 256 256 141 0 256-115 256-256 0-141-115-256-256-256m-72 376c-26 0-48-22-48-48 0-26 22-48 48-48l144 0c26 0 48 22 48 48 0 26-22 48-48 48z m144-112l-144 0c-35 0-64 29-64 64 0 35 29 64 64 64l144 0c35 0 64-29 64-64 0-35-29-64-64-64z m-6 88c-13 0-24-11-24-24 0-13 11-24 24-24 13 0 24 11 24 24 0 13-11 24-24 24m0-64c-22 0-40 18-40 40 0 22 18 40 40 40 22 0 40-18 40-40 0-22-18-40-40-40m-138-56c-26 0-48-22-48-48 0-26 22-48 48-48l144 0c26 0 48 22 48 48 0 26-22 48-48 48z m144-112l-144 0c-35 0-64 29-64 64 0 35 29 64 64 64l144 0c35 0 64-29 64-64 0-35-29-64-64-64z m-138 88c-13 0-24-11-24-24 0-13 11-24 24-24 13 0 24 11 24 24 0 13-11 24-24 24m0-64c-22 0-40 18-40 40 0 22 18 40 40 40 22 0 40-18 40-40 0-22-18-40-40-40"/>
<glyph glyph-name="key" unicode="&#103;" d="M448 53c-3 0-5 1-8 3l-149 150c-4 4-4 11 0 15 4 4 11 4 15 0l150-149c4-5 4-11 0-16-3-2-5-3-8-3m-17-32l60 0 0 60-168 167c-4 5-4 11 0 16l14 13-19 19c-2 2-3 6-2 10 3 12 4 24 4 35 0 83-67 150-149 150-83 0-150-67-150-150 0-93 87-169 185-145 4 1 8 0 10-2l19-19 13 14c5 4 11 4 16 0l32-32c2-2 3-5 3-8l0-21 21 0c3 0 6-1 8-3l53-53c2-2 3-5 3-8l0-21 21 0c3 0 6-1 8-3z m70-21l-74 0c-3 0-6 1-8 3l-18 18-28 0c-6 0-10 5-10 11l0 28-47 47-28 0c-6 0-11 4-11 10l0 28-21 21-14-14c-4-4-11-4-15 0l-22 22c-109-23-205 62-205 167 0 94 77 171 171 171 94 0 170-77 170-171 0-11-1-23-3-34l22-22c4-4 4-11 0-15l-14-14 163-163c2-2 3-5 3-8l0-74c0-6-5-11-11-11z m-384 427c-17 0-32-15-32-32 0-18 15-32 32-32 18 0 32 14 32 32 0 17-14 32-32 32m0-86c-29 0-53 24-53 54 0 29 24 53 53 53 30 0 54-24 54-53 0-30-24-54-54-54"/>
<glyph glyph-name="person" unicode="&#104;" d="M0 166l12 0c0 0 11997-1 12183-1-202 0-372 1-11031 1m-998 199c2-12 4-49 4-70-3-1-6-3-7-6-4-10 5-40 5-40 0 0 2-7 10-9 4-17 11-37 21-53 0-2-3-30-3-37-3 0-6 0-9 0-5 0-3-11-5-18-2-7-8-12-8-18 0 0-45-19-85-37 35-29 81-54 128-61l78 0c49 8 96 33 132 65-38 17-77 33-77 33 0 6-6 11-8 18-2 7 0 18-5 18-3 0-6 0-9 0 0 7-3 35-3 37 10 16 17 36 21 53 8 2 10 9 10 9 0 0 9 30 5 40-2 3-4 5-7 6 0 21 2 58 3 70 2 12-5 27-20 39 3 14-16 50-16 50-19-24-75-32-110-39-34-8-47-33-45-50z m86 139c-135 0-244-109-244-244 0-135 109-244 244-244 135 0 244 109 244 244 0 135-109 244-244 244m0-496c-139 0-252 113-252 252 0 139 113 252 252 252 139 0 252-113 252-252 0-139-113-252-252-252"/>
<glyph glyph-name="user" unicode="&#105;" d="M39 27l434 0c-5 38-32 69-67 78l-83 22c-5 1-8 5-9 10l-10 39c-1 5 1 10 4 14 21 19 35 48 37 78 0 7 6 12 13 12 4 0 7 3 8 7l5 42c0 3-1 5-2 6-1 1-3 2-5 2-4 0-7 2-10 5-2 2-3 6-3 9l2 53c1 4 2 7 4 9l10 11c6 6 11 16-1 36-11 16-30 25-57 25-20 0-44-2-66-19-2-1-4-2-7-2-72-1-77-28-77-60 0-11 3-41 4-51 1-4 0-8-3-11-2-3-6-5-9-5-5 0-7-1-8-2-1-1-2-3-2-6l5-42c1-4 4-7 7-7l4 0c6 0 12-5 12-12 3-29 16-57 35-77 4-3 5-8 4-13l-10-41c-1-5-4-9-9-10l-83-22c-35-9-62-40-67-78z m-13-27c-4 0-7 1-9 4-3 2-4 6-4 9 0 56 36 105 87 118l75 20 7 26c-19 21-32 49-37 77-12 4-22 15-24 29l-5 43c-1 9 2 19 8 27 3 4 8 7 12 9-1 13-3 32-3 42 0 42 12 85 99 87 30 21 63 21 77 21 36 0 62-13 78-38 20-33 11-56-1-69l-7-7-2-37c4-2 8-5 11-9 6-7 9-17 8-26l-5-43c-1-13-10-24-22-28-4-30-18-58-38-80l6-24 75-20c51-13 87-62 87-117 0-8-6-14-13-14z"/>
<glyph glyph-name="input-preview" unicode="&#107;" d="M254 85c-181 0-254 176-254 176 0 0 73 187 254 187 182 0 255-187 255-187 0 0-73-176-255-176z m0 60c65 0 117 52 117 116 0 65-52 117-117 117-64 0-116-52-116-117 0-64 52-116 116-116z m0 32c47 0 85 38 85 84 0 47-38 85-85 85-46 0-84-38-84-85 0-46 38-84 84-84z"/>
<glyph glyph-name="input-success" unicode="&#106;" d="M0 256c0 141 115 256 256 256 141 0 256-115 256-256 0-141-115-256-256-256-141 0-256 115-256 256z m149-16c-8 9-23 10-32 2-9-9-10-23-2-32l56-62c9-10 25-11 36-1l188 169c9 8 10 23 2 32-9 9-23 10-33 2l-173-156z"/>
<glyph glyph-name="edit" unicode="&#109;" d="M152 77l320 320c11 10 11 28 0 39l-36 36c-11 11-29 11-39 0l-320-320-30-105z m17-29l-169-48 48 169 326 326c23 23 61 23 84 0l37-37c23-23 23-61 0-84z"/>
<glyph glyph-name="delete" unicode="&#110;" d="M435 384c-4 18-21 32-40 32l-278 0c-4 0-9-1-13-2-14-5-24-16-27-30z m-318 64l278 0c40 0 73-33 73-73 0-8-2-16-4-23l-416 0c-13 38 8 80 46 92 8 3 15 4 23 4z m-5-99l0-279c0-19 14-35 32-35l224 0c18 0 32 16 32 35l0 279z m-32 35l352 0 0-314c0-39-29-70-64-70l-224 0c-35 0-64 31-64 70z m96 64l160 0c0 18-14 32-32 32l-96 0c-18 0-32-14-32-32z m32 64l96 0c35 0 64-29 64-64l0-32-224 0 0 32c0 35 29 64 64 64z m-16-224c9 0 16-9 16-19l0-154c0-10-7-19-16-19-9 0-16 9-16 19l0 154c0 10 7 19 16 19z m128 0c9 0 16-9 16-19l0-154c0-10-7-19-16-19-9 0-16 9-16 19l0 154c0 10 7 19 16 19z m-64 0c9 0 16-9 16-19l0-154c0-10-7-19-16-19-9 0-16 9-16 19l0 154c0 10 7 19 16 19z"/>
<glyph glyph-name="dashboard" unicode="&#97;" d="M122 186l208 0 0 200-208 0z m216-16l-224 0c-4 0-8 4-8 8l0 216c0 4 4 8 8 8l224 0c4 0 8-4 8-8l0-216c0-4-4-8-8-8z m-32 76l-72 0c-2 0-4 2-4 4 0 2 2 4 4 4l72 0c2 0 4-2 4-4 0-2-2-4-4-4m0 24l-72 0c-2 0-4 2-4 4 0 2 2 4 4 4l72 0c2 0 4-2 4-4 0-2-2-4-4-4m0 24l-72 0c-2 0-4 2-4 4 0 2 2 4 4 4l72 0c2 0 4-2 4-4 0-2-2-4-4-4m0-80l-152 0c-2 0-4 2-4 4 0 2 2 4 4 4l152 0c2 0 4-2 4-4 0-2-2-4-4-4m-148 40l40 0 0 40-40 0z m44-8l-48 0c-2 0-4 2-4 4l0 48c0 2 2 4 4 4l48 0c2 0 4-2 4-4l0-48c0-2-2-4-4-4z m92 112c0-4-4-8-8-8-4 0-8 4-8 8 0 4 4 8 8 8 4 0 8-4 8-8m24 0c0-4-4-8-8-8-4 0-8 4-8 8 0 4 4 8 8 8 4 0 8-4 8-8m-200-32l216 0 0 8-216 0z m138 170c-132 0-240-108-240-240 0-132 108-240 240-240 132 0 240 108 240 240 0 132-108 240-240 240m0-496c-141 0-256 115-256 256 0 141 115 256 256 256 141 0 256-115 256-256 0-141-115-256-256-256m110 286c-4 0-8 4-8 8 0 4 4 8 8 8 4 0 8-4 8-8 0-4-4-8-8-8z m-4-72l-16 0 0-8 16 0c2 0 4 2 4 4 0 2-2 4-4 4m0 24l-16 0 0-8 16 0c2 0 4 2 4 4 0 2-2 4-4 4m0-48l-16 0 0-8 16 0c2 0 4 2 4 4 0 2-2 4-4 4m36 152l-52 0 0-16 44 0 0-60-44 0 0-8 44 0 0-132-208 0 0 44-16 0 0-52c0-4 4-8 8-8l224 0c4 0 8 4 8 8l0 216c0 4-4 8-8 8"/>
<glyph glyph-name="alert" unicode="&#108;" d="M256 0c-141 0-256 115-256 256 0 141 115 256 256 256 141 0 256-115 256-256 0-141-115-256-256-256z m32 289c0 10-3 17-9 23-6 5-14 8-23 8-10 0-17-3-23-8-6-6-9-14-9-25l0-158c0-10 3-19 9-24 6-6 13-9 23-9 9 0 17 3 23 8 6 6 9 14 9 25z m-32 64c9 0 16 3 23 9 6 5 9 13 9 23 0 10-3 18-10 23-6 5-13 8-22 8-8 0-16-3-22-9-7-6-10-13-10-22 0-10 3-18 9-23 7-6 14-9 23-9z"/>
<glyph glyph-name="close-btn" unicode="&#111;" d="M439 499l-183-183-183 183c-17 17-44 17-60 0-17-16-17-43 0-60l183-183-183-183c-17-17-17-44 0-61 8-8 19-12 30-12 11 0 22 4 30 12l183 184 183-184c8-8 19-12 30-12 11 0 22 4 31 12 16 17 16 44 0 61l-184 183 184 183c16 17 16 44 0 60-17 17-44 17-61 0z"/>
<glyph glyph-name="dropdown-arrow" unicode="&#113;" d="M452 410l-196-191-196 191-60-59 256-249 256 249z"/>
<glyph glyph-name="v-checked" unicode="&#114;" d="M474 410l-208-341c-5-9-14-14-23-15-2-1-3-1-4-1-9 0-17 4-23 9l-174 171c-12 13-12 33 0 45 12 13 33 13 45 1l145-143 188 307c9 15 29 20 44 11 15-9 20-29 10-44z"/>
<glyph glyph-name="v-unclickable" unicode="&#115;" d="M397 474l3 5c7 7 16 12 26 12 21 0 36-19 36-39 0-9-3-18-8-25l-191-389-3-5c-7-7-16-12-27-12-10 0-20 5-26 13l-134 160c-6 7-9 17-9 26 0 21 15 40 36 40 11 0 20-5 27-13l102-123z m-171-413l7-8 7-4 1 1-13 12c1 1 3 2 5 2 3 0 5-1 6-2l-8 9z"/>
<glyph glyph-name="ic-tooltip" unicode="&#112;" d="M43 256c0-118 95-213 213-213 118 0 213 95 213 213 0 118-95 213-213 213-118 0-213-95-213-213z m-43 0c0 141 115 256 256 256 141 0 256-115 256-256 0-141-115-256-256-256-141 0-256 115-256 256z m238-60l0 0 13 0z m32 42l-27 0c0 1 0 2 0 2 3 7 7 15 14 22 4 5 12 13 24 24 12 10 19 18 23 24 3 6 5 13 5 20 0 13-5 25-15 35-11 10-23 15-38 15-15 0-27-5-36-14-10-9-16-23-19-42l-35 4c0 1 0 1 0 2l35-6 5 42-26 4c4 6 8 12 14 17 15 14 36 21 61 21 27 0 49-8 65-22 16-15 24-33 24-53 0-12-3-24-9-34-5-10-16-22-33-37-11-9-18-17-21-21-4-5-6-10-8-16-2-6-2-15-3-28z m-32-42c0 4 0 8 0 10 0 13 2 24 5 34 3 7 7 15 14 22 4 5 12 13 24 24 12 10 19 18 23 24 3 6 5 13 5 20 0 13-5 25-15 35-11 10-23 15-38 15-15 0-27-5-36-14-10-9-16-23-19-42l-35 4c3 26 13 45 28 59 15 14 36 21 61 21 27 0 49-8 65-22 16-15 24-33 24-53 0-12-3-24-9-34-5-10-16-22-33-37-11-9-18-17-21-21-4-5-6-10-8-16-2-6-2-16-3-29z m36-49l0 19z m0 0l0-19-38 0 0 38 0-38 38 0z m-38-19l0 38 38 0 0-38z"/>
<glyph glyph-name="back-arrow" unicode="&#116;" d="M73 277l418 0c11 0 21-9 21-21 0-12-10-21-21-21l-418 0 134-135c8-8 8-21 0-30-8-8-22-8-30 0l-171 171c-8 8-8 22 0 30l171 171c8 8 22 8 30 0 8-9 8-22 0-30z"/>
</font>
</defs>
</svg>
